<svg xmlns="http://www.w3.org/2000/svg" width="64" height="64" viewBox="0 0 64 64"><g class="nc-icon-wrapper" fill="#ffffff"><path class="st1" d="M21 43c0 .55.45 1 1 1s1-.45 1-1c0-2.47-2.17-4.53-5-4.92V37c0-.55-.45-1-1-1s-1 .45-1 1v1.08c-2.83.4-5 2.45-5 4.92s2.17 4.53 5 4.92v5.97c-1.72-.34-3-1.5-3-2.89 0-.55-.45-1-1-1s-1 .45-1 1c0 2.47 2.17 4.53 5 4.92V57c0 .55.45 1 1 1s1-.45 1-1v-1.08c2.83-.4 5-2.45 5-4.92s-2.17-4.53-5-4.92v-5.97c1.72.33 3 1.5 3 2.89zm-8 0c0-1.39 1.28-2.56 3-2.89v5.79c-1.72-.34-3-1.51-3-2.9zm8 8c0 1.39-1.28 2.56-3 2.89V48.1c1.72.34 3 1.51 3 2.9z" style="" fill="#ffffff"/><path class="st1" d="M17 30C7.63 30 0 37.63 0 47s7.63 17 17 17 17-7.63 17-17-7.63-17-17-17zm0 32C8.73 62 2 55.27 2 47s6.73-15 15-15 15 6.73 15 15-6.73 15-15 15z" style="" fill="#ffffff"/><path class="st1" d="M48 8c2.21 0 4 1.79 4 4 0 .55.45 1 1 1s1-.45 1-1c0-3.31-2.69-6-6-6s-6 2.69-6 6v4h-3c-.55 0-1 .45-1 1s.45 1 1 1h3v4c0 1.1-.9 2-2 2-.55 0-1 .45-1 1s.45 1 1 1h13c.55 0 1-.45 1-1s-.45-1-1-1h-9.54c.34-.59.54-1.27.54-2v-4h5c.55 0 1-.45 1-1s-.45-1-1-1h-5v-4c0-2.21 1.79-4 4-4z" style="" fill="#ffffff"/><path class="st1" d="M47 0c-9.37 0-17 7.63-17 17s7.63 17 17 17 17-7.63 17-17S56.37 0 47 0zm0 32c-8.27 0-15-6.73-15-15S38.73 2 47 2s15 6.73 15 15-6.73 15-15 15z" style="" fill="#ffffff"/><path class="st1" d="M6.29 26.71c.09.09.2.17.33.22.12.04.25.07.38.07s.26-.03.38-.08.23-.12.33-.22l6-6a.996.996 0 1 0-1.41-1.41l-4.1 4.1C9.47 13.6 17.86 6 28 6c.55 0 1-.45 1-1s-.45-1-1-1C16.64 4 7.27 12.65 6.12 23.71L1.71 19.3A.996.996 0 1 0 .3 20.71l5.99 6z" style="" fill="#ffffff"/><path class="st1" d="M57.71 37.29a1 1 0 0 0-1.42 0l-6 6a.996.996 0 1 0 1.41 1.41l4.1-4.1C54.53 50.4 46.14 58 36 58c-.55 0-1 .45-1 1s.45 1 1 1c11.36 0 20.73-8.65 21.88-19.71l4.41 4.41c.2.2.45.3.71.3s.51-.1.71-.29a.996.996 0 0 0 0-1.41l-6-6.01z" style="" fill="#ffffff"/><path id="currency_x5F_conversion_1_" class="st0" d="M0 0h64v64H0z" display="none" opacity="0.5" fill="#ffffff"/></g></svg>