<svg xmlns="http://www.w3.org/2000/svg" width="64" height="64" viewBox="0 0 64 64"><g class="nc-icon-wrapper" fill="#ffffff"><path id="office_x5F_chair" fill="#ffffff" d="M15 56c-1.654 0-3 1.346-3 3s1.346 3 3 3 3-1.346 3-3-1.346-3-3-3zm0 4a1.001 1.001 0 0 1 0-2 1.001 1.001 0 0 1 0 2zm16-4c-1.654 0-3 1.346-3 3s1.346 3 3 3 3-1.346 3-3-1.346-3-3-3zm0 4a1.001 1.001 0 0 1 0-2 1.001 1.001 0 0 1 0 2zm16-4c-1.654 0-3 1.346-3 3s1.346 3 3 3 3-1.346 3-3-1.346-3-3-3zm0 4a1.001 1.001 0 0 1 0-2 1.001 1.001 0 0 1 0 2zm6-40h-4a1 1 0 1 0 0 2h1v10c0 1.493-.832 2.782-2.047 3.471.024-.157.047-.311.047-.471v-4c0-1.654-1.346-3-3-3h-.91L46 6c0-2.206-1.794-4-4-4H20c-2.206 0-4 1.794-3.996 4.087L17.909 28H17c-1.654 0-3 1.346-3 3v4c0 .16.023.314.047.471C12.832 34.782 12 33.493 12 32V22h1a1 1 0 1 0 0-2H9a1 1 0 1 0 0 2h1v10c0 3.309 2.691 6 6 6a.999.999 0 0 0 .359-.072c.207.045.421.072.641.072h10.219l.811 3.242A.999.999 0 0 0 29 42h1v6.01c-6.053.112-16 1.249-16 4.99a1 1 0 1 0 2 0c0-.84 4.906-2.846 14-2.986V53a1 1 0 1 0 2 0v-2.986c9.094.14 14 2.146 14 2.986a1 1 0 1 0 2 0c0-3.741-9.947-4.878-16-4.99V42h1c.459 0 .859-.313.971-.758l.81-3.242H45c.221 0 .434-.027.641-.072A.999.999 0 0 0 46 38c3.309 0 6-2.691 6-6V22h1a1 1 0 1 0 0-2zM18 6c0-1.103.897-2 2-2h22c1.104 0 2 .897 2.004 1.913L42.083 28H19.917L18 6zm14.219 34h-2.438l-.5-2h3.438l-.5 2zM17 36c-.551 0-1-.448-1-1v-4c0-.552.449-1 1-1h28c.551 0 1 .448 1 1v4c0 .552-.449 1-1 1H17z"/></g></svg>